<svg width="20" height="16" viewBox="0 0 20 16" fill="none" xmlns="http://www.w3.org/2000/svg">
<path d="M11.1651 0.722328L13.2524 4.40761C13.4062 4.67461 13.6997 4.86002 14.0382 4.90123L18.7267 5.50116C19.0005 5.53494 19.249 5.66185 19.4168 5.85551C19.5828 6.0467 19.6541 6.28898 19.6138 6.52713C19.5809 6.72491 19.475 6.90786 19.3128 7.04795L15.9155 9.94129C15.667 10.1432 15.5544 10.4423 15.6145 10.7349L16.4509 14.8025C16.54 15.2937 16.1696 15.7568 15.6145 15.8499C15.3857 15.8821 15.1512 15.8483 14.9449 15.756L10.7628 13.8417C10.4524 13.704 10.0858 13.704 9.7754 13.8417L5.59325 15.756C5.07939 15.9958 4.44269 15.8326 4.15669 15.3876C4.05073 15.2104 4.01322 15.0085 4.04792 14.8116L4.88435 10.7431C4.94436 10.4514 4.8309 10.1506 4.58334 9.94871L1.18605 7.05702C0.781903 6.7142 0.769713 6.14971 1.15886 5.79453C1.1673 5.78711 1.17668 5.77887 1.18605 5.77063C1.34734 5.62642 1.55926 5.53494 1.78806 5.51105L6.47656 4.91029C6.81414 4.86826 7.10764 4.6845 7.26236 4.41585L9.27466 0.722328C9.45376 0.405882 9.82509 0.208927 10.2283 0.217168H10.354C10.7037 0.254251 11.0085 0.444613 11.1651 0.722328Z" fill="#FAC412"/>
</svg>
