<svg width="23" height="18" viewBox="0 0 23 18" fill="none" xmlns="http://www.w3.org/2000/svg">
<path d="M17.48 9C16.3067 9.10666 15.3467 9.56 14.6 10.36C13.8533 11.16 13.48 12.1733 13.48 13.4C13.48 14.7333 13.88 15.8267 14.68 16.68C15.48 17.48 16.4933 17.88 17.72 17.88C19.1067 17.88 20.2267 17.3733 21.08 16.36C21.88 15.3467 22.28 13.7733 22.28 11.64C22.28 7.53333 20.92 3.98666 18.2 0.999996C17.6667 0.466663 17.0533 0.199997 16.36 0.199997C15.7733 0.199997 15.2667 0.413331 14.84 0.839998C14.4133 1.21333 14.2 1.66666 14.2 2.2C14.2 2.78666 14.4133 3.29333 14.84 3.72C16.2267 5.16 17.1067 6.92 17.48 9ZM4.2 9C3.02667 9.10666 2.06667 9.56 1.32 10.36C0.573333 11.16 0.199999 12.1733 0.199999 13.4C0.199999 14.7333 0.599999 15.8267 1.4 16.68C2.2 17.48 3.21333 17.88 4.44 17.88C5.82667 17.88 6.94667 17.3733 7.8 16.36C8.6 15.3467 9 13.7733 9 11.64C9 7.53333 7.64 3.98666 4.92 0.999996C4.38667 0.466663 3.77333 0.199997 3.08 0.199997C2.49333 0.199997 1.98667 0.413331 1.56 0.839998C1.13333 1.21333 0.92 1.66666 0.92 2.2C0.92 2.78666 1.13333 3.29333 1.56 3.72C2.94666 5.16 3.82666 6.92 4.2 9Z" fill="#DDDDDD"/>
</svg>
