<svg width="149" height="192" viewBox="0 0 149 192" fill="none" xmlns="http://www.w3.org/2000/svg">
<path d="M15.5104 163.719C33.2164 165.514 72.1905 151.617 76.6992 128.675C82.3351 99.9981 58.4217 76.602 32.9046 91.3541C13.7359 102.436 20.6468 124.958 24.5266 131.707C26.6113 135.333 42.5795 154.045 72.3014 148.137C101.514 142.331 114.568 120.621 118.936 108.262C123.304 95.9019 123.995 79.349 117.735 63.328" stroke="url(#paint0_linear_0_73)" stroke-width="2.5" stroke-linecap="round" stroke-dasharray="8 9"/>
<path d="M97.6297 22.928C96.5779 23.4806 95.9281 24.562 95.9236 25.7451L95.7943 53.3257C95.7751 54.5697 96.4549 55.653 97.5597 56.2125C98.6855 56.7834 100.434 56.44 101.371 55.6001L108.646 49.0782C109.394 48.4097 109.58 47.3208 109.097 46.4473L102.595 34.6695C102.25 34.0716 102.476 33.3132 103.093 32.9948C103.691 32.6708 104.444 32.8896 104.788 33.4871L111.285 45.2807C111.768 46.1557 112.792 46.5905 113.766 46.3329L123.283 43.8216C124.41 43.531 125.246 42.7099 125.566 41.6355C125.603 41.5091 125.645 41.3669 125.666 41.2354C125.874 39.957 125.316 38.7309 124.226 38.0191L100.94 23.066C99.9521 22.4184 98.6799 22.3749 97.6297 22.928" fill="url(#paint1_linear_0_73)"/>
<path opacity="0.4" fill-rule="evenodd" clip-rule="evenodd" d="M110.591 59.2013C110.501 59.5046 110.294 59.7741 109.99 59.9364C109.384 60.2633 108.626 60.0431 108.296 59.4441L106.754 56.6531C106.424 56.0545 106.648 55.304 107.252 54.9767C107.858 54.6515 108.617 54.8721 108.948 55.4695L110.488 58.2617C110.655 58.5606 110.681 58.8979 110.591 59.2013ZM115.395 53.246C115.305 53.5494 115.098 53.8188 114.794 53.9812C114.188 54.3081 113.431 54.0879 113.1 53.4889L111.558 50.6978C111.229 50.0993 111.452 49.3488 112.056 49.0215C112.662 48.6962 113.421 48.9169 113.752 49.5143L115.292 52.3065C115.459 52.6054 115.485 52.9427 115.395 53.246ZM122.861 53.9659C123.165 53.8035 123.372 53.5341 123.462 53.2307C123.552 52.9274 123.526 52.5901 123.359 52.2912L121.819 49.499C121.488 48.9015 120.729 48.6809 120.123 49.0062C119.519 49.3335 119.296 50.084 119.625 50.6825L121.167 53.4736C121.498 54.0726 122.255 54.2927 122.861 53.9659Z" fill="url(#paint2_linear_0_73)"/>
<defs>
<linearGradient id="paint0_linear_0_73" x1="26.4992" y1="92.4228" x2="109.209" y2="126.457" gradientUnits="userSpaceOnUse">
<stop stop-color="#F99462"/>
<stop offset="1" stop-color="#F99462" stop-opacity="0.65"/>
</linearGradient>
<linearGradient id="paint1_linear_0_73" x1="102.397" y1="57.6601" x2="111.509" y2="26.8133" gradientUnits="userSpaceOnUse">
<stop stop-color="#F99462"/>
<stop offset="1" stop-color="#F99462" stop-opacity="0.65"/>
</linearGradient>
<linearGradient id="paint2_linear_0_73" x1="112.562" y1="61.0609" x2="116.441" y2="47.9105" gradientUnits="userSpaceOnUse">
<stop stop-color="#F99462"/>
<stop offset="1" stop-color="#F99462" stop-opacity="0.65"/>
</linearGradient>
</defs>
</svg>
