<svg width="23" height="18" viewBox="0 0 23 18" fill="none" xmlns="http://www.w3.org/2000/svg">
<path d="M5.52 9C6.69333 9.10666 7.65333 9.56 8.4 10.36C9.14667 11.16 9.52 12.1733 9.52 13.4C9.52 14.7333 9.12 15.8267 8.32 16.68C7.52 17.48 6.50667 17.88 5.28 17.88C3.89333 17.88 2.77333 17.3733 1.92 16.36C1.12 15.3467 0.72 13.7733 0.72 11.64C0.72 7.53333 2.08 3.98666 4.8 0.999996C5.33333 0.466663 5.94667 0.199997 6.64 0.199997C7.22667 0.199997 7.73333 0.413331 8.16 0.839998C8.58667 1.21333 8.8 1.66666 8.8 2.2C8.8 2.78666 8.58667 3.29333 8.16 3.72C6.77333 5.16 5.89333 6.92 5.52 9ZM18.8 9C19.9733 9.10666 20.9333 9.56 21.68 10.36C22.4267 11.16 22.8 12.1733 22.8 13.4C22.8 14.7333 22.4 15.8267 21.6 16.68C20.8 17.48 19.7867 17.88 18.56 17.88C17.1733 17.88 16.0533 17.3733 15.2 16.36C14.4 15.3467 14 13.7733 14 11.64C14 7.53333 15.36 3.98666 18.08 0.999996C18.6133 0.466663 19.2267 0.199997 19.92 0.199997C20.5067 0.199997 21.0133 0.413331 21.44 0.839998C21.8667 1.21333 22.08 1.66666 22.08 2.2C22.08 2.78666 21.8667 3.29333 21.44 3.72C20.0533 5.16 19.1733 6.92 18.8 9Z" fill="#DDDDDD"/>
</svg>
